<svg xmlns="http://www.w3.org/2000/svg" xmlns:xlink="http://www.w3.org/1999/xlink" width="1080" zoomAndPan="magnify" viewBox="0 0 810 809.999993" height="1080" preserveAspectRatio="xMidYMid meet" version="1.0"><defs><clipPath id="a3c303233b"><path d="M 32 337.71875 L 778 337.71875 L 778 471.050781 L 32 471.050781 Z M 32 337.71875 " clip-rule="nonzero"/></clipPath><clipPath id="aa8b08d16d"><path d="M 32 519.914062 L 778 519.914062 L 778 653.246094 L 32 653.246094 Z M 32 519.914062 " clip-rule="nonzero"/></clipPath><clipPath id="e587629cf6"><path d="M 32 156.375 L 778 156.375 L 778 289.703125 L 32 289.703125 Z M 32 156.375 " clip-rule="nonzero"/></clipPath></defs><g clip-path="url(#a3c303233b)"><path fill="#100f0d" d="M 98.988281 337.71875 L 711.003906 337.71875 C 712.097656 337.71875 713.191406 337.746094 714.285156 337.800781 C 715.378906 337.855469 716.46875 337.933594 717.558594 338.042969 C 718.644531 338.148438 719.730469 338.28125 720.8125 338.445312 C 721.894531 338.605469 722.972656 338.789062 724.046875 339.003906 C 725.121094 339.21875 726.1875 339.457031 727.25 339.722656 C 728.308594 339.988281 729.363281 340.28125 730.410156 340.597656 C 731.457031 340.917969 732.496094 341.257812 733.527344 341.628906 C 734.558594 341.996094 735.578125 342.390625 736.589844 342.808594 C 737.597656 343.226562 738.597656 343.671875 739.589844 344.136719 C 740.578125 344.605469 741.554688 345.097656 742.519531 345.613281 C 743.484375 346.128906 744.4375 346.667969 745.375 347.230469 C 746.3125 347.792969 747.238281 348.378906 748.148438 348.988281 C 749.054688 349.59375 749.949219 350.222656 750.828125 350.875 C 751.707031 351.527344 752.570312 352.199219 753.417969 352.894531 C 754.261719 353.589844 755.089844 354.304688 755.902344 355.039062 C 756.710938 355.773438 757.503906 356.527344 758.277344 357.300781 C 759.050781 358.074219 759.804688 358.867188 760.539062 359.675781 C 761.273438 360.488281 761.988281 361.316406 762.683594 362.160156 C 763.378906 363.007812 764.050781 363.871094 764.703125 364.75 C 765.355469 365.628906 765.984375 366.523438 766.589844 367.429688 C 767.199219 368.339844 767.785156 369.265625 768.347656 370.203125 C 768.910156 371.140625 769.449219 372.09375 769.964844 373.058594 C 770.480469 374.023438 770.972656 375 771.441406 375.988281 C 771.90625 376.980469 772.351562 377.976562 772.769531 378.988281 C 773.1875 380 773.582031 381.019531 773.949219 382.050781 C 774.320312 383.082031 774.664062 384.121094 774.980469 385.167969 C 775.296875 386.214844 775.589844 387.269531 775.855469 388.328125 C 776.121094 389.390625 776.359375 390.457031 776.574219 391.53125 C 776.789062 392.605469 776.972656 393.679688 777.136719 394.761719 C 777.296875 395.847656 777.429688 396.929688 777.535156 398.019531 C 777.644531 399.109375 777.722656 400.199219 777.777344 401.292969 C 777.832031 402.386719 777.859375 403.480469 777.859375 404.574219 C 777.859375 405.667969 777.832031 406.761719 777.777344 407.851562 C 777.722656 408.945312 777.644531 410.035156 777.535156 411.125 C 777.429688 412.214844 777.296875 413.300781 777.136719 414.382812 C 776.972656 415.464844 776.789062 416.542969 776.574219 417.617188 C 776.359375 418.6875 776.121094 419.753906 775.855469 420.816406 C 775.589844 421.878906 775.296875 422.933594 774.980469 423.980469 C 774.664062 425.027344 774.320312 426.066406 773.949219 427.09375 C 773.582031 428.125 773.1875 429.144531 772.769531 430.15625 C 772.351562 431.167969 771.90625 432.167969 771.441406 433.15625 C 770.972656 434.144531 770.480469 435.121094 769.964844 436.085938 C 769.449219 437.050781 768.910156 438.003906 768.347656 438.941406 C 767.785156 439.878906 767.199219 440.804688 766.589844 441.714844 C 765.984375 442.625 765.355469 443.519531 764.703125 444.398438 C 764.050781 445.277344 763.378906 446.136719 762.683594 446.984375 C 761.988281 447.828125 761.273438 448.65625 760.539062 449.46875 C 759.804688 450.28125 759.050781 451.070312 758.277344 451.84375 C 757.503906 452.617188 756.710938 453.371094 755.902344 454.109375 C 755.089844 454.84375 754.261719 455.558594 753.417969 456.25 C 752.570312 456.945312 751.707031 457.617188 750.828125 458.269531 C 749.949219 458.921875 749.054688 459.550781 748.148438 460.160156 C 747.238281 460.765625 746.3125 461.351562 745.375 461.914062 C 744.4375 462.476562 743.484375 463.015625 742.519531 463.53125 C 741.554688 464.046875 740.578125 464.539062 739.589844 465.007812 C 738.597656 465.476562 737.597656 465.917969 736.589844 466.335938 C 735.578125 466.753906 734.558594 467.148438 733.527344 467.519531 C 732.496094 467.886719 731.457031 468.230469 730.410156 468.546875 C 729.363281 468.863281 728.308594 469.15625 727.25 469.421875 C 726.1875 469.6875 725.121094 469.929688 724.046875 470.140625 C 722.972656 470.355469 721.894531 470.542969 720.8125 470.703125 C 719.730469 470.863281 718.644531 470.996094 717.558594 471.105469 C 716.46875 471.210938 715.378906 471.292969 714.285156 471.34375 C 713.191406 471.398438 712.097656 471.425781 711.003906 471.425781 L 98.988281 471.425781 C 97.894531 471.425781 96.800781 471.398438 95.710938 471.34375 C 94.617188 471.292969 93.527344 471.210938 92.4375 471.105469 C 91.347656 470.996094 90.261719 470.863281 89.179688 470.703125 C 88.097656 470.542969 87.019531 470.355469 85.945312 470.140625 C 84.875 469.929688 83.804688 469.6875 82.746094 469.421875 C 81.683594 469.15625 80.628906 468.863281 79.582031 468.546875 C 78.535156 468.230469 77.496094 467.886719 76.464844 467.519531 C 75.4375 467.148438 74.417969 466.753906 73.40625 466.335938 C 72.394531 465.917969 71.394531 465.476562 70.40625 465.007812 C 69.417969 464.539062 68.4375 464.046875 67.472656 463.53125 C 66.507812 463.015625 65.558594 462.476562 64.621094 461.914062 C 63.679688 461.351562 62.757812 460.765625 61.847656 460.160156 C 60.9375 459.550781 60.042969 458.921875 59.164062 458.269531 C 58.285156 457.617188 57.421875 456.945312 56.578125 456.25 C 55.730469 455.558594 54.902344 454.84375 54.09375 454.109375 C 53.28125 453.371094 52.488281 452.617188 51.714844 451.84375 C 50.941406 451.070312 50.1875 450.28125 49.453125 449.46875 C 48.71875 448.65625 48.003906 447.828125 47.308594 446.984375 C 46.617188 446.136719 45.941406 445.277344 45.292969 444.398438 C 44.640625 443.519531 44.007812 442.625 43.402344 441.714844 C 42.792969 440.804688 42.207031 439.878906 41.644531 438.941406 C 41.082031 438.003906 40.542969 437.050781 40.027344 436.085938 C 39.511719 435.121094 39.019531 434.144531 38.554688 433.15625 C 38.085938 432.167969 37.640625 431.167969 37.222656 430.15625 C 36.804688 429.144531 36.410156 428.125 36.042969 427.09375 C 35.675781 426.066406 35.332031 425.027344 35.011719 423.980469 C 34.695312 422.933594 34.402344 421.878906 34.136719 420.816406 C 33.871094 419.753906 33.632812 418.6875 33.417969 417.617188 C 33.207031 416.542969 33.019531 415.464844 32.859375 414.382812 C 32.699219 413.300781 32.5625 412.214844 32.457031 411.125 C 32.347656 410.035156 32.269531 408.945312 32.214844 407.851562 C 32.160156 406.761719 32.136719 405.667969 32.136719 404.574219 C 32.136719 403.480469 32.160156 402.386719 32.214844 401.292969 C 32.269531 400.199219 32.347656 399.109375 32.457031 398.019531 C 32.5625 396.929688 32.699219 395.847656 32.859375 394.761719 C 33.019531 393.679688 33.207031 392.605469 33.417969 391.53125 C 33.632812 390.457031 33.871094 389.390625 34.136719 388.328125 C 34.402344 387.269531 34.695312 386.214844 35.011719 385.167969 C 35.332031 384.121094 35.675781 383.082031 36.042969 382.050781 C 36.410156 381.019531 36.804688 380 37.222656 378.988281 C 37.640625 377.976562 38.085938 376.980469 38.554688 375.988281 C 39.019531 375 39.511719 374.023438 40.027344 373.058594 C 40.542969 372.09375 41.082031 371.140625 41.644531 370.203125 C 42.207031 369.265625 42.792969 368.339844 43.402344 367.429688 C 44.007812 366.523438 44.640625 365.628906 45.292969 364.75 C 45.941406 363.871094 46.617188 363.007812 47.308594 362.160156 C 48.003906 361.316406 48.71875 360.488281 49.453125 359.675781 C 50.1875 358.867188 50.941406 358.074219 51.714844 357.300781 C 52.488281 356.527344 53.28125 355.773438 54.09375 355.039062 C 54.902344 354.304688 55.730469 353.589844 56.578125 352.894531 C 57.421875 352.199219 58.285156 351.527344 59.164062 350.875 C 60.042969 350.222656 60.9375 349.59375 61.847656 348.988281 C 62.757812 348.378906 63.679688 347.792969 64.621094 347.230469 C 65.558594 346.667969 66.507812 346.128906 67.472656 345.613281 C 68.4375 345.097656 69.417969 344.605469 70.40625 344.136719 C 71.394531 343.671875 72.394531 343.226562 73.40625 342.808594 C 74.417969 342.390625 75.4375 341.996094 76.464844 341.628906 C 77.496094 341.257812 78.535156 340.917969 79.582031 340.597656 C 80.628906 340.28125 81.683594 339.988281 82.746094 339.722656 C 83.804688 339.457031 84.875 339.21875 85.945312 339.003906 C 87.019531 338.789062 88.097656 338.605469 89.179688 338.445312 C 90.261719 338.28125 91.347656 338.148438 92.4375 338.042969 C 93.527344 337.933594 94.617188 337.855469 95.710938 337.800781 C 96.800781 337.746094 97.894531 337.71875 98.988281 337.71875 Z M 98.988281 337.71875 " fill-opacity="1" fill-rule="nonzero"/></g><g clip-path="url(#aa8b08d16d)"><path fill="#100f0d" d="M 98.988281 519.914062 L 711.003906 519.914062 C 712.097656 519.914062 713.191406 519.941406 714.285156 519.996094 C 715.378906 520.050781 716.46875 520.128906 717.558594 520.238281 C 718.644531 520.34375 719.730469 520.476562 720.8125 520.640625 C 721.894531 520.800781 722.972656 520.988281 724.046875 521.199219 C 725.121094 521.414062 726.1875 521.652344 727.25 521.917969 C 728.308594 522.183594 729.363281 522.476562 730.410156 522.792969 C 731.457031 523.113281 732.496094 523.453125 733.527344 523.824219 C 734.558594 524.191406 735.578125 524.585938 736.589844 525.003906 C 737.597656 525.421875 738.597656 525.867188 739.589844 526.332031 C 740.578125 526.800781 741.554688 527.292969 742.519531 527.808594 C 743.484375 528.324219 744.4375 528.863281 745.375 529.425781 C 746.3125 529.988281 747.238281 530.574219 748.148438 531.183594 C 749.054688 531.789062 749.949219 532.417969 750.828125 533.070312 C 751.707031 533.722656 752.570312 534.394531 753.417969 535.089844 C 754.261719 535.785156 755.089844 536.5 755.902344 537.234375 C 756.710938 537.96875 757.503906 538.722656 758.277344 539.496094 C 759.050781 540.269531 759.804688 541.0625 760.539062 541.871094 C 761.273438 542.683594 761.988281 543.511719 762.683594 544.355469 C 763.378906 545.203125 764.050781 546.066406 764.703125 546.945312 C 765.355469 547.824219 765.984375 548.71875 766.589844 549.625 C 767.199219 550.535156 767.785156 551.460938 768.347656 552.398438 C 768.910156 553.335938 769.449219 554.289062 769.964844 555.253906 C 770.480469 556.21875 770.972656 557.195312 771.441406 558.183594 C 771.90625 559.175781 772.351562 560.175781 772.769531 561.183594 C 773.1875 562.195312 773.582031 563.214844 773.949219 564.246094 C 774.320312 565.277344 774.664062 566.316406 774.980469 567.363281 C 775.296875 568.410156 775.589844 569.464844 775.855469 570.523438 C 776.121094 571.585938 776.359375 572.652344 776.574219 573.726562 C 776.789062 574.800781 776.972656 575.875 777.136719 576.957031 C 777.296875 578.042969 777.429688 579.125 777.535156 580.214844 C 777.644531 581.304688 777.722656 582.394531 777.777344 583.488281 C 777.832031 584.582031 777.859375 585.675781 777.859375 586.769531 C 777.859375 587.863281 777.832031 588.957031 777.777344 590.046875 C 777.722656 591.140625 777.644531 592.230469 777.535156 593.320312 C 777.429688 594.410156 777.296875 595.496094 777.136719 596.578125 C 776.972656 597.660156 776.789062 598.738281 776.574219 599.8125 C 776.359375 600.882812 776.121094 601.949219 775.855469 603.011719 C 775.589844 604.074219 775.296875 605.128906 774.980469 606.175781 C 774.664062 607.222656 774.320312 608.261719 773.949219 609.289062 C 773.582031 610.320312 773.1875 611.339844 772.769531 612.351562 C 772.351562 613.363281 771.90625 614.363281 771.441406 615.351562 C 770.972656 616.339844 770.480469 617.316406 769.964844 618.28125 C 769.449219 619.246094 768.910156 620.199219 768.347656 621.136719 C 767.785156 622.074219 767.199219 623 766.589844 623.910156 C 765.984375 624.820312 765.355469 625.714844 764.703125 626.59375 C 764.050781 627.472656 763.378906 628.332031 762.683594 629.179688 C 761.988281 630.023438 761.273438 630.851562 760.539062 631.664062 C 759.804688 632.476562 759.050781 633.265625 758.277344 634.039062 C 757.503906 634.8125 756.710938 635.570312 755.902344 636.304688 C 755.089844 637.039062 754.261719 637.753906 753.417969 638.445312 C 752.570312 639.140625 751.707031 639.8125 750.828125 640.464844 C 749.949219 641.117188 749.054688 641.746094 748.148438 642.355469 C 747.238281 642.960938 746.3125 643.546875 745.375 644.109375 C 744.4375 644.671875 743.484375 645.210938 742.519531 645.726562 C 741.554688 646.242188 740.578125 646.734375 739.589844 647.203125 C 738.597656 647.671875 737.597656 648.113281 736.589844 648.53125 C 735.578125 648.953125 734.558594 649.34375 733.527344 649.714844 C 732.496094 650.082031 731.457031 650.425781 730.410156 650.742188 C 729.363281 651.058594 728.308594 651.351562 727.25 651.617188 C 726.1875 651.882812 725.121094 652.125 724.046875 652.335938 C 722.972656 652.550781 721.894531 652.738281 720.8125 652.898438 C 719.730469 653.058594 718.644531 653.191406 717.558594 653.300781 C 716.46875 653.40625 715.378906 653.488281 714.285156 653.539062 C 713.191406 653.59375 712.097656 653.621094 711.003906 653.621094 L 98.988281 653.621094 C 97.894531 653.621094 96.800781 653.59375 95.710938 653.539062 C 94.617188 653.488281 93.527344 653.40625 92.4375 653.300781 C 91.347656 653.191406 90.261719 653.058594 89.179688 652.898438 C 88.097656 652.738281 87.019531 652.550781 85.945312 652.335938 C 84.875 652.125 83.804688 651.882812 82.746094 651.617188 C 81.683594 651.351562 80.628906 651.058594 79.582031 650.742188 C 78.535156 650.425781 77.496094 650.082031 76.464844 649.714844 C 75.4375 649.34375 74.417969 648.953125 73.40625 648.53125 C 72.394531 648.113281 71.394531 647.671875 70.40625 647.203125 C 69.417969 646.734375 68.4375 646.242188 67.472656 645.726562 C 66.507812 645.210938 65.558594 644.671875 64.621094 644.109375 C 63.679688 643.546875 62.757812 642.960938 61.847656 642.355469 C 60.9375 641.746094 60.042969 641.117188 59.164062 640.464844 C 58.285156 639.8125 57.421875 639.140625 56.578125 638.445312 C 55.730469 637.753906 54.902344 637.039062 54.09375 636.304688 C 53.28125 635.570312 52.488281 634.8125 51.714844 634.039062 C 50.941406 633.265625 50.1875 632.476562 49.453125 631.664062 C 48.71875 630.851562 48.003906 630.023438 47.308594 629.179688 C 46.617188 628.332031 45.941406 627.472656 45.292969 626.59375 C 44.640625 625.714844 44.007812 624.820312 43.402344 623.910156 C 42.792969 623 42.207031 622.074219 41.644531 621.136719 C 41.082031 620.199219 40.542969 619.246094 40.027344 618.28125 C 39.511719 617.316406 39.019531 616.339844 38.554688 615.351562 C 38.085938 614.363281 37.640625 613.363281 37.222656 612.351562 C 36.804688 611.339844 36.410156 610.320312 36.042969 609.289062 C 35.675781 608.261719 35.332031 607.222656 35.011719 606.175781 C 34.695312 605.128906 34.402344 604.074219 34.136719 603.011719 C 33.871094 601.949219 33.632812 600.882812 33.417969 599.8125 C 33.207031 598.738281 33.019531 597.660156 32.859375 596.578125 C 32.699219 595.496094 32.5625 594.410156 32.457031 593.320312 C 32.347656 592.230469 32.269531 591.140625 32.214844 590.046875 C 32.160156 588.957031 32.136719 587.863281 32.136719 586.769531 C 32.136719 585.675781 32.160156 584.582031 32.214844 583.488281 C 32.269531 582.394531 32.347656 581.304688 32.457031 580.214844 C 32.5625 579.125 32.699219 578.042969 32.859375 576.957031 C 33.019531 575.875 33.207031 574.800781 33.417969 573.726562 C 33.632812 572.652344 33.871094 571.585938 34.136719 570.523438 C 34.402344 569.464844 34.695312 568.410156 35.011719 567.363281 C 35.332031 566.316406 35.675781 565.277344 36.042969 564.246094 C 36.410156 563.214844 36.804688 562.195312 37.222656 561.183594 C 37.640625 560.175781 38.085938 559.175781 38.554688 558.183594 C 39.019531 557.195312 39.511719 556.21875 40.027344 555.253906 C 40.542969 554.289062 41.082031 553.335938 41.644531 552.398438 C 42.207031 551.460938 42.792969 550.535156 43.402344 549.625 C 44.007812 548.71875 44.640625 547.824219 45.292969 546.945312 C 45.941406 546.066406 46.617188 545.203125 47.308594 544.355469 C 48.003906 543.511719 48.71875 542.683594 49.453125 541.871094 C 50.1875 541.0625 50.941406 540.269531 51.714844 539.496094 C 52.488281 538.722656 53.28125 537.96875 54.09375 537.234375 C 54.902344 536.5 55.730469 535.785156 56.578125 535.089844 C 57.421875 534.394531 58.285156 533.722656 59.164062 533.070312 C 60.042969 532.417969 60.9375 531.789062 61.847656 531.183594 C 62.757812 530.574219 63.679688 529.988281 64.621094 529.425781 C 65.558594 528.863281 66.507812 528.324219 67.472656 527.808594 C 68.4375 527.292969 69.417969 526.800781 70.40625 526.332031 C 71.394531 525.867188 72.394531 525.421875 73.40625 525.003906 C 74.417969 524.585938 75.4375 524.191406 76.464844 523.824219 C 77.496094 523.453125 78.535156 523.113281 79.582031 522.792969 C 80.628906 522.476562 81.683594 522.183594 82.746094 521.917969 C 83.804688 521.652344 84.875 521.414062 85.945312 521.199219 C 87.019531 520.988281 88.097656 520.800781 89.179688 520.640625 C 90.261719 520.476562 91.347656 520.34375 92.4375 520.238281 C 93.527344 520.128906 94.617188 520.050781 95.710938 519.996094 C 96.800781 519.941406 97.894531 519.914062 98.988281 519.914062 Z M 98.988281 519.914062 " fill-opacity="1" fill-rule="nonzero"/></g><g clip-path="url(#e587629cf6)"><path fill="#100f0d" d="M 98.988281 156.375 L 711.003906 156.375 C 712.097656 156.375 713.191406 156.398438 714.285156 156.453125 C 715.378906 156.507812 716.46875 156.589844 717.558594 156.695312 C 718.644531 156.800781 719.730469 156.9375 720.8125 157.097656 C 721.894531 157.257812 722.972656 157.445312 724.046875 157.65625 C 725.121094 157.871094 726.1875 158.109375 727.25 158.375 C 728.308594 158.644531 729.363281 158.933594 730.410156 159.25 C 731.457031 159.570312 732.496094 159.914062 733.527344 160.28125 C 734.558594 160.648438 735.578125 161.042969 736.589844 161.460938 C 737.597656 161.878906 738.597656 162.324219 739.589844 162.792969 C 740.578125 163.257812 741.554688 163.75 742.519531 164.265625 C 743.484375 164.78125 744.4375 165.320312 745.375 165.882812 C 746.3125 166.445312 747.238281 167.03125 748.148438 167.640625 C 749.054688 168.246094 749.949219 168.878906 750.828125 169.53125 C 751.707031 170.179688 752.570312 170.855469 753.417969 171.546875 C 754.261719 172.242188 755.089844 172.957031 755.902344 173.691406 C 756.710938 174.425781 757.503906 175.179688 758.277344 175.953125 C 759.050781 176.726562 759.804688 177.519531 760.539062 178.332031 C 761.273438 179.140625 761.988281 179.96875 762.683594 180.816406 C 763.378906 181.660156 764.050781 182.523438 764.703125 183.402344 C 765.355469 184.28125 765.984375 185.175781 766.589844 186.085938 C 767.199219 186.996094 767.785156 187.917969 768.347656 188.855469 C 768.910156 189.796875 769.449219 190.746094 769.964844 191.710938 C 770.480469 192.675781 770.972656 193.652344 771.441406 194.644531 C 771.90625 195.632812 772.351562 196.632812 772.769531 197.644531 C 773.1875 198.652344 773.582031 199.675781 773.949219 200.703125 C 774.320312 201.734375 774.664062 202.773438 774.980469 203.820312 C 775.296875 204.867188 775.589844 205.921875 775.855469 206.980469 C 776.121094 208.042969 776.359375 209.109375 776.574219 210.183594 C 776.789062 211.257812 776.972656 212.335938 777.136719 213.417969 C 777.296875 214.5 777.429688 215.585938 777.535156 216.671875 C 777.644531 217.761719 777.722656 218.851562 777.777344 219.945312 C 777.832031 221.039062 777.859375 222.132812 777.859375 223.226562 C 777.859375 224.320312 777.832031 225.414062 777.777344 226.507812 C 777.722656 227.597656 777.644531 228.691406 777.535156 229.777344 C 777.429688 230.867188 777.296875 231.953125 777.136719 233.035156 C 776.972656 234.117188 776.789062 235.195312 776.574219 236.269531 C 776.359375 237.339844 776.121094 238.410156 775.855469 239.46875 C 775.589844 240.53125 775.296875 241.585938 774.980469 242.632812 C 774.664062 243.679688 774.320312 244.71875 773.949219 245.75 C 773.582031 246.777344 773.1875 247.800781 772.769531 248.808594 C 772.351562 249.820312 771.90625 250.820312 771.441406 251.808594 C 770.972656 252.796875 770.480469 253.777344 769.964844 254.742188 C 769.449219 255.707031 768.910156 256.65625 768.347656 257.59375 C 767.785156 258.535156 767.199219 259.457031 766.589844 260.367188 C 765.984375 261.277344 765.355469 262.171875 764.703125 263.050781 C 764.050781 263.929688 763.378906 264.792969 762.683594 265.636719 C 761.988281 266.484375 761.273438 267.3125 760.539062 268.121094 C 759.804688 268.933594 759.050781 269.726562 758.277344 270.5 C 757.503906 271.273438 756.710938 272.027344 755.902344 272.761719 C 755.089844 273.496094 754.261719 274.210938 753.417969 274.90625 C 752.570312 275.597656 751.707031 276.269531 750.828125 276.921875 C 749.949219 277.574219 749.054688 278.203125 748.148438 278.8125 C 747.238281 279.421875 746.3125 280.003906 745.375 280.566406 C 744.4375 281.128906 743.484375 281.667969 742.519531 282.183594 C 741.554688 282.703125 740.578125 283.191406 739.589844 283.660156 C 738.597656 284.128906 737.597656 284.570312 736.589844 284.992188 C 735.578125 285.410156 734.558594 285.804688 733.527344 286.171875 C 732.496094 286.539062 731.457031 286.882812 730.410156 287.199219 C 729.363281 287.519531 728.308594 287.808594 727.25 288.074219 C 726.1875 288.339844 725.121094 288.582031 724.046875 288.792969 C 722.972656 289.007812 721.894531 289.195312 720.8125 289.355469 C 719.730469 289.515625 718.644531 289.648438 717.558594 289.757812 C 716.46875 289.863281 715.378906 289.945312 714.285156 290 C 713.191406 290.050781 712.097656 290.078125 711.003906 290.078125 L 98.988281 290.078125 C 97.894531 290.078125 96.800781 290.050781 95.710938 290 C 94.617188 289.945312 93.527344 289.863281 92.4375 289.757812 C 91.347656 289.648438 90.261719 289.515625 89.179688 289.355469 C 88.097656 289.195312 87.019531 289.007812 85.945312 288.792969 C 84.875 288.582031 83.804688 288.339844 82.746094 288.074219 C 81.683594 287.808594 80.628906 287.519531 79.582031 287.199219 C 78.535156 286.882812 77.496094 286.539062 76.464844 286.171875 C 75.4375 285.804688 74.417969 285.410156 73.40625 284.992188 C 72.394531 284.570312 71.394531 284.128906 70.40625 283.660156 C 69.417969 283.191406 68.4375 282.703125 67.472656 282.183594 C 66.507812 281.667969 65.558594 281.128906 64.621094 280.566406 C 63.679688 280.003906 62.757812 279.421875 61.847656 278.8125 C 60.9375 278.203125 60.042969 277.574219 59.164062 276.921875 C 58.285156 276.269531 57.421875 275.597656 56.578125 274.90625 C 55.730469 274.210938 54.902344 273.496094 54.09375 272.761719 C 53.28125 272.027344 52.488281 271.273438 51.714844 270.5 C 50.941406 269.726562 50.1875 268.933594 49.453125 268.121094 C 48.71875 267.3125 48.003906 266.484375 47.308594 265.636719 C 46.617188 264.792969 45.941406 263.929688 45.292969 263.050781 C 44.640625 262.171875 44.007812 261.277344 43.402344 260.367188 C 42.792969 259.457031 42.207031 258.535156 41.644531 257.59375 C 41.082031 256.65625 40.542969 255.707031 40.027344 254.742188 C 39.511719 253.777344 39.019531 252.796875 38.554688 251.808594 C 38.085938 250.820312 37.640625 249.820312 37.222656 248.808594 C 36.804688 247.800781 36.410156 246.777344 36.042969 245.75 C 35.675781 244.71875 35.332031 243.679688 35.011719 242.632812 C 34.695312 241.585938 34.402344 240.53125 34.136719 239.46875 C 33.871094 238.410156 33.632812 237.339844 33.417969 236.269531 C 33.207031 235.195312 33.019531 234.117188 32.859375 233.035156 C 32.699219 231.953125 32.5625 230.867188 32.457031 229.777344 C 32.347656 228.691406 32.269531 227.597656 32.214844 226.507812 C 32.160156 225.414062 32.136719 224.320312 32.136719 223.226562 C 32.136719 222.132812 32.160156 221.039062 32.214844 219.945312 C 32.269531 218.851562 32.347656 217.761719 32.457031 216.671875 C 32.5625 215.585938 32.699219 214.5 32.859375 213.417969 C 33.019531 212.335938 33.207031 211.257812 33.417969 210.183594 C 33.632812 209.109375 33.871094 208.042969 34.136719 206.980469 C 34.402344 205.921875 34.695312 204.867188 35.011719 203.820312 C 35.332031 202.773438 35.675781 201.734375 36.042969 200.703125 C 36.410156 199.675781 36.804688 198.652344 37.222656 197.644531 C 37.640625 196.632812 38.085938 195.632812 38.554688 194.644531 C 39.019531 193.652344 39.511719 192.675781 40.027344 191.710938 C 40.542969 190.746094 41.082031 189.796875 41.644531 188.855469 C 42.207031 187.917969 42.792969 186.996094 43.402344 186.085938 C 44.007812 185.175781 44.640625 184.28125 45.292969 183.402344 C 45.941406 182.523438 46.617188 181.660156 47.308594 180.816406 C 48.003906 179.96875 48.71875 179.140625 49.453125 178.332031 C 50.1875 177.519531 50.941406 176.726562 51.714844 175.953125 C 52.488281 175.179688 53.28125 174.425781 54.09375 173.691406 C 54.902344 172.957031 55.730469 172.242188 56.578125 171.546875 C 57.421875 170.855469 58.285156 170.179688 59.164062 169.53125 C 60.042969 168.878906 60.9375 168.246094 61.847656 167.640625 C 62.757812 167.03125 63.679688 166.445312 64.621094 165.882812 C 65.558594 165.320312 66.507812 164.78125 67.472656 164.265625 C 68.4375 163.75 69.417969 163.257812 70.40625 162.792969 C 71.394531 162.324219 72.394531 161.878906 73.40625 161.460938 C 74.417969 161.042969 75.4375 160.648438 76.464844 160.28125 C 77.496094 159.914062 78.535156 159.570312 79.582031 159.25 C 80.628906 158.933594 81.683594 158.644531 82.746094 158.375 C 83.804688 158.109375 84.875 157.871094 85.945312 157.65625 C 87.019531 157.445312 88.097656 157.257812 89.179688 157.097656 C 90.261719 156.9375 91.347656 156.800781 92.4375 156.695312 C 93.527344 156.589844 94.617188 156.507812 95.710938 156.453125 C 96.800781 156.398438 97.894531 156.375 98.988281 156.375 Z M 98.988281 156.375 " fill-opacity="1" fill-rule="nonzero"/></g></svg>