<svg xmlns="http://www.w3.org/2000/svg" xmlns:xlink="http://www.w3.org/1999/xlink" width="1080" zoomAndPan="magnify" viewBox="0 0 810 809.999993" height="1080" preserveAspectRatio="xMidYMid meet" version="1.0"><defs><clipPath id="726fef0f8c"><path d="M 136.101562 13.164062 L 673.851562 13.164062 L 673.851562 783 L 136.101562 783 Z M 136.101562 13.164062 " clip-rule="nonzero"/></clipPath><clipPath id="d2cc3316ed"><path d="M 226.414062 81 L 583.414062 81 L 583.414062 438 L 226.414062 438 Z M 226.414062 81 " clip-rule="nonzero"/></clipPath></defs><g clip-path="url(#726fef0f8c)"><path fill="#040404" d="M 404.980469 13.425781 C 553.480469 13.425781 673.863281 133.828125 673.863281 282.351562 C 673.863281 334.03125 659.277344 382.289062 634.015625 423.273438 C 603.714844 473.472656 573.410156 523.683594 543.109375 573.890625 C 506.203125 633.890625 476.339844 682.445312 439.4375 742.445312 C 406.902344 795.351562 404.707031 796.648438 372 743.476562 C 335.28125 683.773438 304.414062 633.589844 267.695312 573.890625 C 237.460938 524.246094 207.238281 474.605469 177.003906 424.964844 C 151.101562 383.625 136.101562 334.742188 136.101562 282.351562 C 136.101562 133.828125 256.484375 13.425781 404.980469 13.425781 Z M 404.980469 148.253906 C 471.554688 148.253906 525.523438 202.230469 525.523438 268.8125 C 525.523438 335.398438 471.558594 389.371094 404.980469 389.371094 C 338.40625 389.371094 284.441406 335.394531 284.441406 268.8125 C 284.445312 202.230469 338.410156 148.253906 404.980469 148.253906 Z M 404.980469 148.253906 " fill-opacity="1" fill-rule="evenodd"/></g><g clip-path="url(#d2cc3316ed)"><path fill="#000000" d="M 404.757812 80.894531 C 306.203125 80.894531 226.308594 160.789062 226.308594 259.347656 C 226.308594 357.902344 306.203125 437.796875 404.757812 437.796875 C 503.3125 437.796875 583.207031 357.902344 583.207031 259.347656 C 583.207031 160.789062 503.3125 80.894531 404.757812 80.894531 Z M 404.753906 151.261719 C 434.535156 151.261719 458.679688 175.402344 458.679688 205.183594 C 458.679688 234.964844 434.535156 259.109375 404.753906 259.109375 C 374.972656 259.109375 350.832031 234.964844 350.832031 205.183594 C 350.832031 175.402344 374.972656 151.261719 404.753906 151.261719 Z M 405.265625 355.707031 L 326.074219 355.707031 C 326.074219 302.566406 354.988281 283.648438 373.953125 266.667969 C 383.136719 271.605469 393.617188 274.4375 404.753906 274.519531 C 415.886719 274.4375 426.367188 271.605469 435.550781 266.667969 C 454.519531 283.652344 483.433594 302.566406 483.433594 355.707031 Z M 405.265625 355.707031 " fill-opacity="1" fill-rule="nonzero"/></g></svg>